<svg id="Hexels SVG Export" xmlns="http://www.w3.org/2000/svg" version="1.1" xmlns:xlink="http://www.w3.org/1999/xlink" viewBox="0 -0 1490 640" height="50px" width="50px" xml:space="preserve">
<g id="Root" transform="matrix(1.000, 0.000, 0.000, 1.000, 0.000, 0.000)">
<g id="Layer 1" transform="matrix(1.000, 0.000, 0.000, 1.000, 0.000, 0.000)">
<path d="M 34.89,-0.43 L -0.46,-0.20 L -0.43,80.25 L 34.64,60.50 L 68.85,79.75 L -0.43,119.75 L -0.47,200.17 L 34.16,220.12 L 34.16,339.88 L -0.47,359.84 L -0.43,440.25 L 68.85,480.25 L 34.64,499.50 L -0.49,479.88 L -0.49,640.11 L 35.11,640.17 L 35.12,540.14 L 68.81,520.16 L 68.80,640.14 L 104.41,640.12 L 104.23,500.40 L 207.85,560.50 L 311.46,500.40 L 311.28,640.12 L 346.89,640.14 L 346.88,520.16 L 380.57,540.14 L 380.58,640.17 L 416.17,640.14 L 416.10,520.28 L 554.25,440.50 L 692.41,520.29 L 692.34,640.14 L 727.93,640.17 L 727.94,540.14 L 761.63,520.16 L 761.62,640.14 L 797.22,640.12 L 797.05,500.40 L 900.66,560.50 L 1004.28,500.40 L 1004.10,640.12 L 1039.71,640.14 L 1039.70,520.16 L 1073.39,540.14 L 1073.39,640.17 L 1108.99,640.14 L 1108.92,520.28 L 1247.07,440.50 L 1385.22,520.29 L 1385.15,640.14 L 1420.75,640.17 L 1420.76,540.14 L 1454.44,520.16 L 1454.44,640.14 L 1490.05,640.10 L 1490.01,459.80 L 1386.01,399.67 L 1420.18,380.49 L 1489.56,420.50 L 1489.99,379.75 L 1455.41,359.90 L 1455.41,200.09 L 1490.05,180.08 L 1490.05,-0.10 L 1454.46,-0.20 L 1454.48,79.75 L 1420.73,59.80 L 1420.71,-0.25 L 1385.26,-0.33 L 1385.31,39.62 L 1247.07,119.50 L 1108.83,39.62 L 1108.88,-0.33 L 1073.62,-0.43 L 1073.49,19.68 L 1039.47,39.57 L 1039.60,-0.33 L 1004.15,-0.25 L 1004.58,59.50 L 900.66,-0.50 L 796.74,59.50 L 797.17,-0.25 L 761.72,-0.33 L 761.84,39.57 L 727.84,19.67 L 727.70,-0.44 L 692.44,-0.33 L 692.49,39.62 L 554.25,119.50 L 416.02,39.62 L 416.07,-0.33 L 380.80,-0.43 L 380.67,19.68 L 346.66,39.57 L 346.78,-0.33 L 311.34,-0.25 L 311.77,59.50 L 207.84,-0.50 L 103.92,59.50 L 104.35,-0.25 L 68.90,-0.33 L 69.03,39.57 L 35.02,19.68 L 34.89,-0.43  z
M 0.38,160.33 L 104.06,100.48 L 138.19,119.67 L 34.50,179.52 L 0.38,160.33  z
M 139.00,80.25 L 207.85,40.50 L 276.69,80.25 L 242.49,99.50 L 207.84,79.50 L 173.20,99.50 L 139.00,80.25  z
M 69.71,200.25 L 207.85,120.50 L 345.98,200.25 L 345.98,359.75 L 207.84,439.50 L 69.71,359.75 L 69.71,200.25  z
M 277.50,119.67 L 311.63,100.48 L 415.31,160.33 L 381.19,179.52 L 277.50,119.67  z
M 450.47,139.52 L 346.79,79.67 L 380.91,60.48 L 484.60,120.33 L 450.47,139.52  z
M 381.53,220.12 L 415.20,200.12 L 415.20,359.88 L 381.54,339.88 L 381.53,220.12  z
M 450.73,379.70 L 450.73,180.30 L 554.25,240.50 L 657.78,180.30 L 657.77,379.70 L 554.25,319.50 L 450.73,379.70  z
M 34.50,380.48 L 138.19,440.33 L 104.06,459.52 L 0.38,399.67 L 34.50,380.48  z
M 485.40,159.75 L 519.61,140.50 L 554.26,160.50 L 588.90,140.50 L 623.10,159.75 L 554.25,199.50 L 485.40,159.75  z
M 277.50,440.33 L 381.19,380.48 L 415.31,399.67 L 311.63,459.52 L 277.50,440.33  z
M 139.00,479.75 L 173.20,460.50 L 207.85,480.50 L 242.49,460.50 L 276.69,479.75 L 207.85,519.50 L 139.00,479.75  z
M 346.79,480.33 L 450.47,420.48 L 484.60,439.67 L 380.91,499.52 L 346.79,480.33  z
M 658.04,139.52 L 623.91,120.33 L 727.60,60.48 L 761.72,79.67 L 658.04,139.52  z
M 485.40,400.25 L 554.25,360.50 L 623.10,400.25 L 588.90,419.50 L 554.25,399.50 L 519.61,419.50 L 485.40,400.25  z
M 693.19,160.33 L 796.88,100.48 L 831.00,119.67 L 727.32,179.52 L 693.19,160.33  z
M 693.30,359.88 L 693.30,200.12 L 726.97,220.12 L 726.97,339.88 L 693.30,359.88  z
M 762.53,359.75 L 762.53,200.25 L 900.66,120.50 L 1038.79,200.25 L 1038.79,359.75 L 900.66,439.50 L 762.53,359.75  z
M 623.91,439.67 L 658.04,420.48 L 761.72,480.33 L 727.60,499.52 L 623.91,439.67  z
M 866.02,99.50 L 831.81,80.25 L 900.66,40.50 L 969.51,80.25 L 935.30,99.50 L 900.66,79.50 L 866.02,99.50  z
M 796.88,459.52 L 693.19,399.67 L 727.32,380.48 L 831.00,440.33 L 796.88,459.52  z
M 970.32,119.67 L 1004.44,100.48 L 1108.13,160.33 L 1074.01,179.52 L 970.32,119.67  z
M 831.81,479.75 L 866.02,460.50 L 900.67,480.50 L 935.31,460.50 L 969.51,479.75 L 900.66,519.50 L 831.81,479.75  z
M 1143.29,139.52 L 1039.60,79.67 L 1073.73,60.48 L 1177.41,120.33 L 1143.29,139.52  z
M 1074.35,220.12 L 1108.02,200.12 L 1108.02,359.88 L 1074.35,339.88 L 1074.35,220.12  z
M 1004.45,459.52 L 970.32,440.33 L 1074.01,380.48 L 1108.13,399.67 L 1004.45,459.52  z
M 1143.55,379.70 L 1143.55,180.30 L 1247.07,240.50 L 1350.59,180.30 L 1350.59,379.70 L 1247.07,319.50 L 1143.55,379.70  z
M 1178.22,159.75 L 1212.43,140.50 L 1247.07,160.50 L 1281.71,140.50 L 1315.92,159.75 L 1247.07,199.50 L 1178.22,159.75  z
M 1039.60,480.33 L 1143.29,420.48 L 1177.41,439.67 L 1073.72,499.52 L 1039.60,480.33  z
M 1350.90,139.51 L 1316.78,120.25 L 1385.73,80.49 L 1419.84,99.75 L 1350.90,139.51  z
M 1178.22,400.25 L 1247.07,360.50 L 1315.92,400.25 L 1281.71,419.50 L 1247.07,399.50 L 1212.42,419.50 L 1178.22,400.25  z
M 1386.07,160.25 L 1455.01,120.49 L 1489.12,139.75 L 1420.18,179.51 L 1386.07,160.25  z
M 1386.12,359.88 L 1386.12,200.12 L 1419.79,220.12 L 1419.79,339.88 L 1386.12,359.88  z
M 1316.73,439.67 L 1350.85,420.48 L 1454.54,480.33 L 1420.42,499.52 L 1316.73,439.67  z
" style="fill:grey;fill-opacity:1.00"/>
</g>
</g></svg>
