<?xml version="1.0" encoding="UTF-8"?>
<svg xmlns="http://www.w3.org/2000/svg" xmlns:xlink="http://www.w3.org/1999/xlink" width="116px" height="50px" viewBox="0 0 116 50" version="1.1">
<g id="surface1">
<path style=" stroke:none;fill-rule:nonzero;fill:#EEEFF0;fill-opacity:1;" d="M 2.71875 -0.0351562 L -0.0351562 -0.015625 L -0.0351562 6.269531 L 2.695312 4.726562 L 5.359375 6.230469 L -0.0351562 9.355469 L -0.0390625 15.636719 L 2.660156 17.195312 L 2.660156 26.554688 L -0.0390625 28.113281 L -0.0351562 34.394531 L 5.359375 37.519531 L 2.695312 39.023438 L -0.0390625 37.492188 L -0.0390625 50.007812 L 2.734375 50.011719 L 2.734375 42.199219 L 5.355469 40.636719 L 5.355469 50.011719 L 8.128906 50.007812 L 8.113281 39.09375 L 16.179688 43.789062 L 24.246094 39.09375 L 24.234375 50.007812 L 27.003906 50.011719 L 27.003906 40.636719 L 29.628906 42.199219 L 29.628906 50.011719 L 32.402344 50.011719 L 32.394531 40.648438 L 43.152344 34.414062 L 53.90625 40.648438 L 53.898438 50.011719 L 56.671875 50.011719 L 56.671875 42.199219 L 59.292969 40.636719 L 59.292969 50.011719 L 62.066406 50.007812 L 62.050781 39.09375 L 70.117188 43.789062 L 78.1875 39.09375 L 78.171875 50.007812 L 80.941406 50.011719 L 80.941406 40.636719 L 83.566406 42.199219 L 83.566406 50.011719 L 86.335938 50.011719 L 86.332031 40.648438 L 97.089844 34.414062 L 107.84375 40.648438 L 107.839844 50.011719 L 110.609375 50.011719 L 110.609375 42.199219 L 113.230469 40.636719 L 113.230469 50.011719 L 116.003906 50.007812 L 116 35.921875 L 107.90625 31.226562 L 110.5625 29.726562 L 115.964844 32.851562 L 116 29.667969 L 113.304688 28.117188 L 113.304688 15.632812 L 116.003906 14.070312 L 116.003906 -0.0078125 L 113.234375 -0.015625 L 113.234375 6.230469 L 110.609375 4.671875 L 110.605469 -0.0195312 L 107.847656 -0.0234375 L 107.847656 3.09375 L 97.085938 9.335938 L 86.324219 3.09375 L 86.328125 -0.0273438 L 83.582031 -0.0351562 L 83.574219 1.539062 L 80.925781 3.089844 L 80.933594 -0.0273438 L 78.175781 -0.0195312 L 78.207031 4.648438 L 70.117188 -0.0390625 L 62.027344 4.648438 L 62.0625 -0.0195312 L 59.300781 -0.0234375 L 59.3125 3.089844 L 56.664062 1.539062 L 56.652344 -0.0351562 L 53.90625 -0.0234375 L 53.910156 3.09375 L 43.152344 9.335938 L 32.386719 3.09375 L 32.390625 -0.0273438 L 29.644531 -0.0351562 L 29.636719 1.539062 L 26.988281 3.089844 L 26.996094 -0.0273438 L 24.238281 -0.0195312 L 24.269531 4.648438 L 16.179688 -0.0390625 L 8.089844 4.648438 L 8.125 -0.0195312 L 5.363281 -0.0234375 L 5.375 3.089844 L 2.726562 1.539062 Z M 0.03125 12.523438 L 8.101562 7.851562 L 10.757812 9.351562 L 2.6875 14.023438 Z M 10.820312 6.269531 L 16.179688 3.164062 L 21.542969 6.269531 L 18.878906 7.773438 L 16.179688 6.210938 L 13.484375 7.773438 Z M 5.429688 15.644531 L 16.179688 9.414062 L 26.933594 15.644531 L 26.933594 28.105469 L 16.179688 34.335938 L 5.429688 28.105469 Z M 21.605469 9.351562 L 24.261719 7.851562 L 32.332031 12.523438 L 29.675781 14.023438 Z M 35.070312 10.898438 L 26.996094 6.226562 L 29.652344 4.726562 L 37.726562 9.402344 Z M 29.703125 17.195312 L 32.324219 15.632812 L 32.324219 28.117188 L 29.703125 26.554688 Z M 35.089844 29.664062 L 35.089844 14.085938 L 43.152344 18.789062 L 51.210938 14.085938 L 51.210938 29.664062 L 43.152344 24.960938 Z M 2.6875 29.726562 L 10.757812 34.398438 L 8.101562 35.898438 L 0.03125 31.222656 Z M 37.789062 12.480469 L 40.453125 10.976562 L 43.152344 12.539062 L 45.847656 10.976562 L 48.511719 12.480469 L 43.152344 15.585938 Z M 21.605469 34.398438 L 29.675781 29.726562 L 32.332031 31.226562 L 24.261719 35.898438 Z M 10.820312 37.480469 L 13.484375 35.976562 L 16.179688 37.539062 L 18.878906 35.976562 L 21.542969 37.480469 L 16.179688 40.585938 Z M 26.996094 37.523438 L 35.070312 32.851562 L 37.726562 34.351562 L 29.652344 39.023438 Z M 51.230469 10.898438 L 48.574219 9.398438 L 56.644531 4.726562 L 59.300781 6.222656 Z M 37.789062 31.269531 L 43.152344 28.164062 L 48.511719 31.269531 L 45.847656 32.773438 L 43.148438 31.210938 L 40.453125 32.773438 Z M 53.96875 12.523438 L 62.039062 7.851562 L 64.695312 9.351562 L 56.625 14.023438 Z M 53.976562 28.117188 L 53.976562 15.632812 L 56.597656 17.195312 L 56.597656 26.554688 Z M 59.367188 28.105469 L 59.367188 15.644531 L 70.117188 9.414062 L 80.871094 15.644531 L 80.871094 28.105469 L 70.117188 34.335938 Z M 48.574219 34.351562 L 51.230469 32.851562 L 59.300781 37.523438 L 56.644531 39.023438 Z M 67.421875 7.773438 L 64.757812 6.269531 L 70.117188 3.164062 L 75.480469 6.269531 L 72.816406 7.773438 L 70.117188 6.210938 Z M 62.039062 35.898438 L 53.96875 31.226562 L 56.625 29.726562 L 64.695312 34.402344 Z M 75.542969 9.351562 L 78.199219 7.851562 L 86.269531 12.523438 L 83.613281 14.023438 Z M 64.757812 37.480469 L 67.421875 35.976562 L 70.117188 37.539062 L 72.816406 35.976562 L 75.480469 37.480469 L 70.117188 40.585938 Z M 89.007812 10.898438 L 80.933594 6.226562 L 83.589844 4.726562 L 91.664062 9.402344 Z M 83.640625 17.195312 L 86.261719 15.632812 L 86.261719 28.117188 L 83.640625 26.554688 Z M 78.199219 35.898438 L 75.542969 34.398438 L 83.613281 29.726562 L 86.269531 31.222656 Z M 89.027344 29.664062 L 89.027344 14.085938 L 97.089844 18.789062 L 105.148438 14.085938 L 105.148438 29.664062 L 97.089844 24.960938 Z M 91.726562 12.480469 L 94.390625 10.976562 L 97.089844 12.539062 L 99.785156 10.976562 L 102.449219 12.480469 L 97.089844 15.585938 Z M 80.933594 37.523438 L 89.007812 32.851562 L 91.664062 34.351562 L 83.589844 39.023438 Z M 105.171875 10.898438 L 102.515625 9.394531 L 107.882812 6.289062 L 110.539062 7.792969 Z M 91.726562 31.269531 L 97.089844 28.164062 L 102.449219 31.269531 L 99.785156 32.773438 L 97.085938 31.210938 L 94.390625 32.773438 Z M 107.90625 12.519531 L 113.277344 9.414062 L 115.929688 10.917969 L 110.5625 14.023438 Z M 107.914062 28.117188 L 107.914062 15.632812 L 110.535156 17.195312 L 110.535156 26.554688 Z M 102.507812 34.351562 L 105.167969 32.851562 L 113.238281 37.523438 L 110.582031 39.023438 Z M 102.507812 34.351562 "/>
</g>
</svg>
