<svg version="1.0" width="750" height="500" xmlns="http://www.w3.org/2000/svg">
  <path id="WHITE-FIELD" style="font-size:12px;fill:#fff;fill-opacity:1;fill-rule:evenodd;stroke-width:1.43966" d="M0 .04289868h750v499.95453H0z"/>
  <path id="RED-FIELD" style="font-size:12px;fill:#bf0a30;fill-opacity:1;fill-rule:evenodd;stroke-width:1.01768994" d="M0 .04289868h750v250.06471H0z"/>
  <path id="BLUE-FIELD" style="font-size:12px;fill:#00205B;fill-opacity:1;fill-rule:evenodd;stroke-width:1pt" d="M0-.00000713h250.03131v500H0z"/>
  <!-- <path id="HIGH-LEFT-FLAP" d="M37.394865 117.30837c-15.630966 8.72859-18.46516 12.36895-27.031932 19.06294l18.997861.39755c-.226171 1.76923-4.373446 23.79562-4.766668 25.35001 14.302787-9.50474 21.089463-13.86162 40.603749-19.35917 7.753654-2.15294-.6098-10.03069-1.416702-12.12628-5.301291 2.39271-9.37767 5.23388-13.285624 8.71545" style="font-size:12px;fill:#ffca00;fill-opacity:1;fill-rule:evenodd;stroke:#00205B;stroke-width:1;stroke-linejoin:miter;stroke-dasharray:none;stroke-opacity:1;stroke-miterlimit:4"/> -->
  <path id="HIGH-ROCKER" d="M50.748679 139.16458c29.139196-26.69352 125.557691-26.05555 152.411821.82479.86636-.31158 18.23956-29.62117 17.3732-29.30958-52.72332-36.935002-147.194465-30.607397-186.84422-1.45924l.470322 1.73981 16.588877 28.20422z" style="font-size:12px;fill:#ffca00;fill-opacity:1;fill-rule:evenodd;stroke:#00205B;stroke-width:1;stroke-dasharray:none;stroke-opacity:1;stroke-miterlimit:4"/>
  <path id="N" d="m31.438511 288.13873 9.968831.13411-.314974-43.18746 19.108069 43.41528 10.372425-.00086v-63.52346l-10.124868.13583.153936 40.16307-17.860176-39.98339-11.149307.13497-.153936 62.71191z" style="font-size:12px;fill:#ffca00;fill-opacity:1;fill-rule:evenodd;stroke:none;stroke-width:.62499958;stroke-dasharray:none;stroke-opacity:1"/>
  <path id="C" d="M213.63097 245.13119h10.61712l-.12809-5.59745c-.30089-3.61586-1.66693-8.19715-5.23377-11.58434-2.37445-2.64269-5.18477-4.13512-8.8307-5.1315-3.09487-1.21474-10.67386-.85711-14.5201 1.2947-4.5486 2.54039-8.39053 7.07096-10.95498 14.3706-3.36481 12.29101-1.84488 27.68207.28714 34.92497 2.53865 7.67618 6.52072 11.77261 11.82068 14.35685 3.29862 1.10814 9.05336 1.95407 14.43843.49518 5.8665-2.21887 8.54786-6.07114 10.87761-10.17961 1.41419-2.7811 3.03727-8.11205 2.75444-14.02071l-11.07792.13497c.00774 2.16213-.4307 4.65781-.98004 6.81994-1.25342 3.02267-3.18944 5.04553-8.00196 5.04467-3.22554-.00344-5.40571-1.33167-7.21105-3.71215-2.43635-2.35212-3.0751-7.61773-3.23758-9.10585-.73417-6.72107-.7548-13.37508 1.18207-20.38759.73761-2.83354 2.20424-5.45474 4.12306-6.73138 3.10948-1.68586 6.32643-1.43569 8.14552-.9044 2.38821.73762 4.59159 2.52234 5.27934 4.88563.53472 2.2223.61983 3.57374.65078 5.02747z" style="font-size:12px;fill:#ffca00;fill-opacity:1;fill-rule:evenodd;stroke:none;stroke-width:.62499987999999995;stroke-dasharray:none;stroke-opacity:1"/>
  <path id="STAR" d="m151.99654 290.2245-23.79866-18.49471-24.42592 18.38012 9.67856-28.78479-24.763457-18.22187 29.780337.70472 9.12126-29.64186 8.72671 29.22034 30.4007-.09781-24.38694 17.35445 9.66741 29.58141z" style="font-size:12px;fill:#fff;fill-rule:evenodd;stroke:none;stroke-width:.64412993;stroke-dasharray:none;stroke-opacity:1;fill-opacity:1"/>
  <!-- <path id="HIGH-LEFT-UNDERSTROKE" d="M50.831256 139.18109c1.048247 1.07204 3.12055.80575 5.980045.26358 2.28296-.27557 4.884426-.3803 6.931531-.61656 3.388659.27678 5.329931 1.06983 3.936972 2.67738" style="fill:none;fill-opacity:1;fill-rule:evenodd;stroke:#00205B;stroke-width:1;stroke-linecap:butt;stroke-linejoin:miter;stroke-dasharray:none;stroke-opacity:1;stroke-miterlimit:4"/> -->
  <!-- <path id="HIGH-RIGHT-FLAP" d="M216.6449 118.25092c15.63096 8.72859 18.46516 12.36895 27.03193 19.06294l-18.99786.39755c.22617 1.76923 4.37345 23.79562 4.76667 25.35002-14.30279-9.50474-21.08947-13.86163-40.60375-19.35918-7.75366-2.15293.88965-10.17037 1.69655-12.26597 5.30121 2.39274 9.79747 5.23372 13.00577 8.85514" style="font-size:12px;fill:#ffca00;fill-opacity:1;fill-rule:evenodd;stroke:#00205B;stroke-width:1;stroke-linejoin:miter;stroke-dasharray:none;stroke-opacity:1;stroke-miterlimit:4"/> -->
  <path id="HIGH-RIGHT-UNDERSTROKE" d="M202.98477 140.12372c-1.7548.81119-3.56605.45257-5.75729.26358-2.07936-.30258-4.43892-.65707-6.77429-.73579-3.9148.02701-5.32994 1.66158-4.09421 2.79661" style="fill:none;fill-opacity:1;fill-rule:evenodd;stroke:#00205B;stroke-width:1;stroke-linecap:butt;stroke-linejoin:miter;stroke-dasharray:none;stroke-opacity:1;stroke-miterlimit:4"/>
  <!-- <path id="LOW-LEFT-FLAP" d="M38.024821 387.45054c-15.630966-8.53542-18.46516-12.09521-27.031932-18.64106l18.997861-.38875c-.226171-1.73007-4.373446-23.26899-4.766668-24.78898 14.302787 9.29439 21.089463 13.55485 40.603749 18.93073 7.753654 2.10529-.6098 9.8087-1.416702 11.85791-5.301291-2.33976-9.37767-5.11805-13.285624-8.52256" style="font-size:12px;fill:#ffca00;fill-opacity:1;fill-rule:evenodd;stroke:#00205B;stroke-width:1;stroke-linejoin:miter;stroke-dasharray:none;stroke-opacity:1;stroke-miterlimit:4"/> -->
  <path id="LOW-ROCKER" d="M51.378635 366.07779c29.139196 26.10279 125.557685 25.47893 152.411815-.80654.86636.3047 18.23957 28.96565 17.37321 28.66096-52.72332 36.11761-147.194469 29.93003-186.844224 1.42694l.470322-1.7013 16.588877-27.58006z" style="font-size:12px;fill:#ffca00;fill-opacity:1;fill-rule:evenodd;stroke:#00205B;stroke-width:1;stroke-dasharray:none;stroke-opacity:1;stroke-miterlimit:4"/>
  <!-- <path id="LOW-LEFT-UNDERSTROKE" d="M51.461206 366.06176c1.048247-1.04831 3.12055-.78791 5.980045-.25774 2.28296.26947 4.884426.37188 6.931531.60291 3.388659-.27065 5.329931-1.04615 3.936972-2.61813" style="fill:none;fill-opacity:1;fill-rule:evenodd;stroke:#00205B;stroke-width:1;stroke-linecap:butt;stroke-linejoin:miter;stroke-dasharray:none;stroke-opacity:1;stroke-miterlimit:4"/> -->
  <!-- <path id="LOW-RIGHT-FLAP" d="M217.27395 386.52888c15.63096-8.53542 18.46516-12.09521 27.03193-18.64106l-18.99786-.38875c.22617-1.73007 4.37345-23.26899 4.76667-24.78898-14.30279 9.29439-21.08947 13.55485-40.60375 18.93073-7.75366 2.10529.88965 9.94529 1.69655 11.9945 5.30121-2.33978 9.79747-5.11789 13.00577-8.65915" style="font-size:12px;fill:#ffca00;fill-opacity:1;fill-rule:evenodd;stroke:#00205B;stroke-width:1;stroke-linejoin:miter;stroke-dasharray:none;stroke-opacity:1;stroke-miterlimit:4"/> -->
  <!-- <path id="LOW-RIGHT-UNDERSTROKE" d="M203.61467 365.1401c-1.7548-.79323-3.56605-.44255-5.75729-.25774-2.07936.29589-4.43892.64253-6.77429.71951-3.9148-.02642-5.32994-1.62481-4.09421-2.73473" style="fill:none;fill-opacity:1;fill-rule:evenodd;stroke:#00205B;stroke-width:1;stroke-linecap:butt;stroke-linejoin:miter;stroke-dasharray:none;stroke-opacity:1;stroke-miterlimit:4"/> -->
</svg>
